
<svg
   fill="#000000"
   height="80"
   width="80"
   version="1.1"
   id="Layer_1"
   viewBox="0 0 64 64"
   xml:space="preserve"
   xmlns="http://www.w3.org/2000/svg">
   <g id="SVGRepo_bgCarrier" stroke-width="0"></g>
   <g id="SVGRepo_tracerCarrier" stroke-linecap="round" stroke-linejoin="round"></g>
   <g id="SVGRepo_iconCarrier">
       <!-- Engrenagem -->
       <g transform="translate(0, 0)">
           <path d="M56.39,32.93c0.18-0.77,0.26-1.55,0.26-2.35c0-0.8-0.09-1.58-0.26-2.35l5.17-4.02c0.45-0.35,0.56-0.99,0.26-1.48l-4.89-8.47c-0.3-0.52-0.93-0.7-1.48-0.53l-6.1,2.45c-1.22-0.95-2.54-1.74-3.98-2.35l-0.93-6.49c-0.08-0.56-0.55-0.97-1.11-0.97h-9.78c-0.56,0-1.03,0.41-1.11,0.97l-0.93,6.49c-1.43,0.61-2.76,1.4-3.98,2.35l-6.1-2.45c-0.55-0.22-1.18,0.02-1.48,0.53l-4.89,8.47c-0.3,0.52-0.2,1.16,0.26,1.48l5.17,4.02c-0.18,0.77-0.26,1.55-0.26,2.35c0,0.8,0.09,1.58,0.26,2.35l-5.17,4.02c-0.45,0.35-0.56,0.99-0.26,1.48l4.89,8.47c0.3,0.52,0.93,0.7,1.48,0.53l6.1-2.45c1.22,0.95,2.54,1.74,3.98,2.35l0.93,6.49c0.08,0.56,0.55,0.97,1.11,0.97h9.78c0.56,0,1.03-0.41,1.11-0.97l0.93-6.49c1.43-0.61,2.76-1.4,3.98-2.35l6.1,2.45c0.55,0.22,1.18-0.02,1.48-0.53l4.89-8.47c0.3-0.52,0.2-1.16-0.26-1.48L56.39,32.93z M32,39.2c-4.13,0-7.2-3.07-7.2-7.2s3.07-7.2,7.2-7.2s7.2,3.07,7.2,7.2S36.13,39.2,32,39.2z"></path>
       </g>
       <!-- Setas apontando para a direita -->
       <g transform="translate(15, 15)">
           <polygon points="32,26 24,32 24,28 16,28 16,24 24,24 24,20 "></polygon>
           <polygon points="48,26 40,32 40,28 32,28 32,24 40,24 40,20 "></polygon>
           <polygon points="64,26 56,32 56,28 48,28 48,24 56,24 56,20 "></polygon>
       </g>
   </g>
</svg>
